<?xml version="1.0" encoding="UTF-8"?>
<svg viewBox="0 0 376.93 191.22" xmlns="http://www.w3.org/2000/svg" xmlns:xlink="http://www.w3.org/1999/xlink">
 <defs>
  <linearGradient id="o" x1=".44115" x2=".46215" y1=".095405" y2="1.5451" xlink:href="#a"/>
  <linearGradient id="n" x1=".41065" x2=".56695" y1=".081511" y2="1.4864" xlink:href="#a"/>
  <linearGradient id="a">
   <stop stop-color="#eeeeec" offset="0"/>
   <stop stop-color="#eeeeec" stop-opacity="0" offset="1"/>
  </linearGradient>
  <linearGradient id="l" x1=".46259" x2=".56176" y1=".059668" y2=".66702">
   <stop stop-color="#fff" offset="0"/>
   <stop stop-color="#fff" stop-opacity="0" offset="1"/>
  </linearGradient>
  <linearGradient id="m" x1=".12157" x2=".8461" y1=".15169" y2=".73232">
   <stop stop-color="#fcfcfb" offset="0"/>
   <stop stop-color="#fcfcfb" stop-opacity="0" offset="1"/>
  </linearGradient>
  <linearGradient id="p" x1=".55885" x2=".53785" y1=".095407" y2="1.545" xlink:href="#a"/>
  <linearGradient id="j">
   <stop stop-color="#555753" offset="0"/>
   <stop stop-color="#555753" stop-opacity="0" offset="1"/>
  </linearGradient>
  <radialGradient id="k" cx="-80.337" cy="531.58" r="19.269" gradientTransform="matrix(1 0 0 .6055 0 209.71)" gradientUnits="userSpaceOnUse" xlink:href="#j"/>
  <radialGradient id="q" cx="-69.827" cy="531.58" r="19.269" gradientTransform="matrix(1 0 0 .6055 0 209.71)" gradientUnits="userSpaceOnUse" xlink:href="#j"/>
 </defs>
 <g stroke-linecap="round" stroke-linejoin="bevel">
  <path d="m273.24 145.73c0.00766 24.02-37.193 43.494-83.085 43.494s-83.093-19.474-83.085-43.494c-0.007645-24.02 37.193-43.494 83.085-43.494s83.093 19.474 83.085 43.494z" fill="#5d3667" stroke-width=".5"/>
  <g stroke-width="2">
   <path d="m190.28 51.378c-104.45 0-162.07 30.62-188.49 54.993 55.446 39.956 119.74 53.561 188.49 52.993 68.386 0.37207 126.86-18.347 187.44-52.493-26.42-24.372-82.993-55.493-187.44-55.493z" fill="#ad7fa8"/>
   <g fill-opacity=".98">
    <path d="m1 106.43c56.582 37.645 119.3 54.865 187.69 54.493 0.016052-1.22e-4 0.032043 1.22e-4 0.048096 0 68.386 0.37207 128.61-19.847 189.19-53.993-47.401 10.596-127.54 40.033-183.81 36.925-1.8277 0-3.6302-0.011353-5.4329-0.048096-1.7869 0.036133-3.5735 0.048096-5.3848 0.048096-56.269 3.1083-134.9-26.828-182.31-37.425z" fill="#5c3566"/>
    <path d="m277.69 77.505c0 12.719-38.27 23.03-85.478 23.03s-85.478-10.311-85.478-23.03c-3.1e-5 -12.719 38.27-23.03 85.478-23.03s85.478 10.311 85.478 23.03z" fill="#d3d7cf"/>
    <path d="m192.2 80.715c-29.909 0-54.189 6.5214-54.377 14.568 14.778 3.2863 33.734 5.2407 54.377 5.2406 20.665 0 39.641-1.948 54.425-5.2406-0.18646-8.0471-24.515-14.568-54.425-14.568z" fill="#555753"/>
    <path d="m277.96 65.933c0 37.499-34.672 40.112-86.255 40.76-56.422 0.69898-87.504-5.8745-84.701-40.76 2.9941-37.265 38.294-67.933 85.478-67.933s85.478 30.434 85.478 67.933z" fill="#eeeeec" opacity=".739"/>
   </g>
  </g>
 </g>
 <g stroke-linecap="round" stroke-linejoin="bevel">
  <g stroke-width="4">
   <path d="m192.72 53.792c-16.186 0-29.344 13.38-29.344 29.875 0 5.5286 1.4907 10.713 4.0625 15.156 8.5723 0.78448 17.737 1.2188 27.281 1.2188 8.0018 0 15.723-0.31641 23.062-0.875 2.6948-4.5181 4.25-9.83 4.25-15.5 0-16.495-13.126-29.875-29.312-29.875z" fill="#4d9a06" fill-opacity=".98"/>
   <path d="m206.95 67.76c0.001938 5.0906-6.8129 9.2179-15.22 9.2179-8.4072 0-15.222-4.1273-15.22-9.2179-0.001938-5.0906 6.8129-9.2179 15.22-9.2179 8.4072 0 15.222 4.1273 15.22 9.2179z" fill="url(#q)"/>
  </g>
  <g stroke-width="2">
   <path d="m158.96 11.651c-2.4052 0-4.3444 2.1714-4.3444 4.8381s1.9391 4.8134 4.3444 4.8134 4.3691-2.1467 4.3691-4.8134c0-0.14173-0.013885-0.28098-0.024689-0.41962 1.9992-0.42837 4.6654-0.71921 7.3065-0.09875 2.6047 0.61193 5.1485 2.0083 7.2324 5.1343 1.7513 2.6269 3.1552 6.5571 3.7273 12.268-4.545 3.7046-7.5039 9.6608-7.5039 16.39 0 11.231 8.2346 20.34 18.365 20.34s18.34-9.1082 18.34-20.34c0-7.7084-3.8728-14.419-9.5774-17.871 1.7192-5.6072 3.9214-9.2516 6.1957-11.503 2.67-2.6429 5.4465-3.5036 8.121-3.5792 2.7161-0.07675 5.2607 0.75674 7.1337 1.5798-0.037842 0.13196-0.070618 0.2579-0.098755 0.39493-0.53632 2.6122 0.95154 5.1195 3.3077 5.6033 2.3561 0.48376 4.6966-1.2385 5.233-3.8507 0.53635-2.6122-0.95154-5.1195-3.3076-5.6032-1.1781-0.24188-2.3592 0.06726-3.3077 0.7652-1.1911-0.56049-2.6846-1.1293-4.3691-1.5304-1.4433-0.34365-3.0219-0.56549-4.6899-0.51834-3.3361 0.09427-7.0425 1.2993-10.268 4.4925-2.6794 2.6522-5.0279 6.6342-6.8375 12.367-1.8485-0.69452-3.8155-1.0861-5.8748-1.0861-2.8183 0-5.512 0.68973-7.8989 1.95-0.70291-5.2362-2.1307-9.1449-4.0482-12.021-2.5178-3.7768-5.9088-5.7039-9.1578-6.4672-1.6244-0.38162-3.207-0.49066-4.69-0.4443-1.7403 0.05444-3.3079 0.33017-4.5912 0.64178-0.78967-0.8829-1.8762-1.4317-3.0855-1.4317z" fill="#4e9a06"/>
   <g fill-opacity=".98">
    <path d="m200.3 43.561c0 5.0051-3.6596 9.0625-8.174 9.0625s-8.174-4.0574-8.174-9.0625 3.6596-9.0625 8.174-9.0625 8.174 4.0574 8.174 9.0625z" fill="#eeeeec"/>
    <path d="m195.3 46.268c0 2.7307-1.6565 4.9444-3.6998 4.9444s-3.6998-2.2137-3.6998-4.9444 1.6564-4.9444 3.6998-4.9444c2.0433 0 3.6998 2.2137 3.6998 4.9444z" fill="#2e3436"/>
   </g>
  </g>
  <g stroke-width="4">
   <path d="m197.36 40.553c0 2.803-0.42654-3.2442-5.36-1.8337-2.8447 0.81332-5.36 4.6366-5.36 1.8337 0-2.803 2.4012-5.0778 5.36-5.0778 2.9587 0 5.36 2.2749 5.36 5.0778z" fill="#fff"/>
   <path d="m180.14 74.494c9.77e-4 3.5657-3.4377 6.4566-7.6799 6.4566-4.2421 0-7.6808-2.891-7.6799-6.4566-9.61e-4 -3.5657 3.4377-6.4566 7.6799-6.4566 4.2421 0 7.6808 2.891 7.6799 6.4566z" fill="url(#k)"/>
  </g>
 </g>
 <path d="m173.43 75.161c9.6616-2.6193-8.2878-24.928-18.367-17.656-3.0318 23.379-10.542 22.378-29.838 27.598 9.3922 1.0564 20.952 3.6203 28.348-4.0426 7.2673-19.722 9.8985-6.3873 19.857-5.8994z" fill="#4c9a06" fill-opacity=".98" fill-rule="evenodd"/>
 <path d="m205.66 73.098c-9.61e-4 3.5657 3.4377 6.4567 7.6799 6.4567 4.2421 0 7.6808-2.891 7.6798-6.4567 9.77e-4 -3.5657-3.4377-6.4566-7.6798-6.4566-4.2422 0-7.6808 2.891-7.6799 6.4566z" fill="url(#k)" stroke-linecap="round" stroke-linejoin="bevel" stroke-width="4"/>
 <path d="m212.36 73.764c-9.6616-2.6193 8.2878-24.928 18.367-17.656 3.0318 23.379 10.542 22.378 29.838 27.598-9.3922 1.0564-20.952 3.6203-28.348-4.0426-7.2674-19.722-9.8985-6.3873-19.857-5.8995z" fill="#4c9a06" fill-opacity=".98" fill-rule="evenodd"/>
 <path d="m165.42 91.285c0.68433 2.2969 1.6084 4.4737 2.7812 6.5 8.5723 0.78455 17.737 1.2188 27.281 1.2188 8.0018 0 15.723-0.31634 23.062-0.875 1.1974-2.0075 2.1328-4.186 2.8438-6.4688-0.93483-0.025879-1.842-0.095154-2.75-0.21875-0.035019 0.059692-0.058319 0.12811-0.09375 0.1875-7.3397 0.55866-15.061 0.875-23.062 0.875-9.5442 0-18.709-0.4342-27.281-1.2188-0.47185 0.031799-0.92786 0.0625-1.4062 0.0625-0.45721 0-0.92374-0.033447-1.375-0.0625z" fill="#555753" fill-opacity=".98" opacity=".183" stroke-linecap="round" stroke-linejoin="bevel" stroke-width="4"/>
 <path d="m263.18 57.097c0 31.517-17.996-33.442-71.655-16.171-62.249 20.037-73.125 31.203-72.03 16.171 2.2829-31.338 32.185-57.097 71.842-57.097s71.842 25.579 71.842 57.097z" fill="url(#l)" opacity=".739" stroke-linecap="round" stroke-linejoin="bevel" stroke-width="2"/>
 <path d="m123.48 151.03z" fill="none" stroke="#000"/>
 <g stroke-linecap="round" stroke-linejoin="bevel">
  <path d="m130.16 57.699c-1.2814 0.21738-1.7913 1.5414-7.375 0.84375-32.245 0.48044-77.746 21.525-108.91 46.656 4.5173 0.70459 8.6096 1.4571 12.406 2.3125 29.172-22.517 69.332-41.146 99.875-43.656 3.5219-1.1233 7.2083-2.2017 11.156-3.1875-4.6945-2.6387-6.1596-3.1378-7.1562-2.9688zm-78.812 60.062c0.094639 0.062065 0.18652 0.12476 0.28125 0.1875 0.011028-0.009644 0.020222-0.021599 0.03125-0.03125-0.10529-0.049194-0.20705-0.10774-0.3125-0.15625z" fill="url(#m)" stroke-width="2"/>
  <g stroke-width="5">
   <path d="m202.16 126.81c0 3.866-7.835 7-17.5 7s-17.5-3.134-17.5-7 7.835-7 17.5-7 17.5 3.134 17.5 7z" fill="#0ff"/>
   <path d="m81.592 109.79c-0.86732 3.2996-8.2576 4.2167-16.507 2.0484-8.249-2.1683-14.233-6.601-13.366-9.9005 0.86731-3.2996 8.2576-4.2167 16.507-2.0484 8.249 2.1683 14.233 6.601 13.366 9.9006z" fill="#ff7f00"/>
   <path d="m194.14 125.75c0 2.6139-9.9345-7.614-11.838 4.7353-0.99558 6.4584-11.838-2.1214-11.838-4.7353 0-2.6138 5.3035-4.7352 11.838-4.7352 6.5347 0 11.838 2.1214 11.838 4.7352z" fill="url(#n)"/>
   <path d="m76.045 105.95c-0.44204 2.1788-7.4307-8.1155-11.19 1.8393-1.966 5.2062-10.03-3.8761-9.5882-6.055 0.44206-2.1788 5.4551-3.0028 11.19-1.8393 5.7348 1.1635 10.03 3.8762 9.5882 6.0549z" fill="url(#o)"/>
   <path d="m307.69 111.2c0.86734 3.2996 8.2576 4.2167 16.507 2.0484 8.249-2.1683 14.233-6.601 13.366-9.9005-0.86731-3.2996-8.2576-4.2167-16.507-2.0484-8.249 2.1683-14.233 6.601-13.366 9.9005z" fill="#ff7f00"/>
   <path d="m313.24 107.37c0.44205 2.1788 7.4307-8.1156 11.19 1.8393 1.9659 5.2062 10.03-3.8762 9.5883-6.0549-0.44208-2.1788-5.4551-3.0029-11.19-1.8394-5.7348 1.1636-10.03 3.8762-9.5883 6.055z" fill="url(#p)"/>
  </g>
  <g fill="#2e3436">
   <path d="m271.72 151.44c-18.738 4.2399-45.906 10.046-57.719 7.9375 17.5 10 0 26.906 0 26.906 30.013-4.8216 52.808-18.278 57.719-34.844z" stroke-width=".5"/>
   <path d="m373.54 108.91c-25.152 5.6226-47.506 14.243-82.636 23.121 4.5179 3.2062-4.0709 9.0195-1.6663 13.059 28.512-9.166 56.47-20.493 84.302-36.18z" stroke-width="2"/>
  </g>
 </g>
</svg>
